/* XPM */
static char * space_ship_diag_xpm[] = {
"32 32 11 1",
" 	c None",
".	c #B13E53",
"+	c #EF7D57",
"@	c #FFCD75",
"#	c #29366F",
"$	c #F6F2D5",
"%	c #2F3B6C",
"&	c #3B5DC9",
"*	c #41A6F6",
"=	c #ED7D5E",
"-	c #F5F1D6",
"                                ",
"                                ",
"                                ",
"                                ",
"     ....                       ",
"    .++@+..                     ",
"    .++##@$.                    ",
"    .@%&####..                  ",
"    .+%*&####@.                 ",
"     .@%*&##++@..               ",
"     .$%*&#++.+$+..             ",
"      .%%%+++@+.+@$...........  ",
"       .%+++++@@.+=+.@@@$+++++. ",
"       .@+.@+++@@$.+.++++@@@$$+.",
"        .@++@+++@@@$$.+++++++++.",
"         .$.@@+++@@@$....+++++. ",
"         .++.@@+++@$..$$$.++..  ",
"          .@+$@@++..@+.$$...    ",
"          .$+.@@@.@@@$.$..      ",
"           .++-@$.@+$$$..       ",
"           ...-$.@@$++.         ",
"           .@=...+$$+.          ",
"           .@++.$..$.           ",
"           .@++.$$$.            ",
"           .$++.$$..            ",
"           .+@++...             ",
"           .+@+++.              ",
"           .+@+++.              ",
"           .+$++.               ",
"           .+$++.               ",
"            .++.                ",
"             ..                 "};
