/* XPM */
static char * space_ship_straight_xpm[] = {
"32 32 9 1",
" 	c None",
".	c #B13E53",
"+	c #EF7D57",
"@	c #FFCD75",
"#	c #29366F",
"$	c #41A6F6",
"%	c #3B5DC9",
"&	c #F4F4F4",
"*	c #F6F2D5",
"                                ",
"                                ",
"               ..               ",
"              .++.              ",
"             .@++@.             ",
"             .+##+.             ",
"            .@#$%#@.            ",
"            .&#$%#&.            ",
"            .#$%###.            ",
"            .#%####.            ",
"           .@######@.           ",
"           .@++++++@.           ",
"           .@+.++.+@.           ",
"           .*+@++@+*.           ",
"          .@+.@++@.+@.          ",
"          .@+.@++@.+@.          ",
"          .@+*@++@*+@.          ",
"          .*.*@++@*.*.          ",
"         .++.*@++@*.++.         ",
"        .+.+*@@++@@*+.+.        ",
"       .+@.+*@@..@@*+.@+.       ",
"      .+@@+.**.@@.**.+@@+.      ",
"     .+@@++.+.@@@@.+.++@@+.     ",
"    .+@@++.*.+*++*+.*.++@@+.    ",
"   .+*@++.**.**++**.**.++@*+.   ",
"   .**+++.***......***.+++**.   ",
"   .*+++++...      ...+++++*.   ",
"   .+++...            ...+++.   ",
"   ....                  ....   ",
"                                ",
"                                ",
"                                "};
