/* XPM */
static char * rock_tile_xpm[] = {
"64 64 5 1",
" 	c #2B3036",
".	c #818272",
"+	c #666666",
"@	c #3C3D3F",
"#	c #10151B",
"   .+++@@@###   #####     ###  ++.++@@@@++@@@#  ++...+@@..+++   ",
"   ++@@@@##+....++..+           +++++++@@@@@@#  +...++@.+++@.++ ",
"@    @@@@#+....++@+.+++          +@@@@@@@@@@@## ...+++@.+@@@..+@",
"@@   #####...++++@@@@.@@           @@@@@@@@@### +..+@@@+@@..++@@",
"@@   +.+  +.+@@@+++@.+@@@          #####@@##### ++.+@+@@@..+++@@",
"@@@ +..++  ++@.@@@@@++@@@#            ########   +++@..+@+++@@@@",
"@@@#+.++@@  ++.+++@@@@@@@##       +...+..+###     +++.++@++@@@@@",
"@@@#+++@@@# +++@@@@@@@@@@##+.++  +...+@.+++       ++++++@+@@@@@@",
"@@@##@@@@#    @@@@@@@@@@##+..+@#+..+@@@++@@        +@@@@@@@@@@@@",
"@@@######       @@@@@#####.++@@#...@@+@@@@@   +.+   @@@@@@@@@@@@",
"@@####          ######### @@@@##+.+++++@@@@# ..++@    @@@@@@@@@@",
"@#####+..+       ..++###   @@## ++++@@@@@@@# +++@@#    ###@@@@@@",
"#####++.++@     +.+++@     ###   @@@@@@@@### @@@@# ++.+  #######",
"###+.+@@++@@   +.+++@@@          ##########  @@@## ..+++  ######",
"#+....+@.+@@   +++@@@@@#  +++      #######   ###   .+++@@    ###",
"+....+@@+@@@#   @@@@@##  +...++                    ++@@@@#      ",
"..++++@++@@@#   #####  +......++             +++++  @@@@#      +",
"@@@@++@+@@@## +.++   ++......+++@         ++++....+ #### +++  +.",
"@++@@@@@@@###+..+@@ ++...++++++@@  +.++  ++......++     +..+@ ..",
"++@@@@@@@@##+.+++@##+..+++@@@@+@@@ .++@# +....++++.@    +.+@@#++",
"@@@@@@@@####+.+@@@#+..+++@@.+@@@@@ .+@@# +...++@@++@    +++@@# +",
"@@@@@@##### +@@@@# +.++++@.+++@@@@  @@@# +..++++@@+@     @@@#   ",
"  ########   @@@@# ++@@@+.+++@@@@@# ###  +++++.++@+@#+.+ ####   ",
"+  ######    ####   +@.@@.++@@@@@@##     +.@@@.++@@@#.++@    +++",
"++   ##       +++   +@++++@@@@@@@@##      .++@++++@@#.+@@#  ++..",
".++         +++.+++  @@@@@@@@@@@@###      +++@@++@@@#@@@## ++...",
"++++       ++....+++  @@@@@@@@@@@###       +++@+@@@@#####++.....",
"+++@@     ++......+@@ ##@@@@@@#####         ++@@@@@@####++....++",
"@@@@@     +...++.+++@@ ###########          @@@@@@@@###++...++@@",
"+@@@@#    +..+@@++++@@   ########     +..    @@@@@@@##++...++@@.",
"+@@@@##   +.+++@++++@@     ##++++     ..++    @@@@@###++...++@.+",
"@@@@@##   ++@@+@@@+@@@     +++..+++   .++@@@  ########+@++++++++",
"@@@@@##.+ ++.@@@.++@@@#  +++....++++  ++@@@@#   ##### +@@@+@@+++",
"@@@@##+.+ +..+@.++@@@@# ++.....+++.+   @@@@##    ###  ..+@@@.++@",
"@@@###.++  .++@.+@@@@@# +..++++++@+@   #####          .+@@..+@@@",
"@@###+.+@# +++@@@@@@@## +.+++@@.+@+@        ++++      ++@+++@@@@",
"@####++@@@ ++@@@@@@@@## +.+@@@+.+@@@#      ++...+     @@@@@@@@@@",
"#####@@@@@#@@@@@@@@#### +++.+@@+++@@#     ++...+++     @@@@@@@@@",
"####   ####@@@@@@@####    .+++@++@@@##    +...++@++     @@@@@@@#",
"###.        @@@@@####       ++@@@@@@##   ++..++@@.+@     #######",
"## .+   +.+ ##@@@####        @@@@@@@##   +..+@@@+.@@        ####",
"#  ++@  ..+++#######    +.+  #@@@@@@#.++ +..+@+@@+@@@    +.+@ ##",
"   +@@# .+++@@####      ..++  ##@@##+.++  .++..+@@@@@#   +.+@@  ",
"   @@@#  +@@@@#         .++@@# #####.++@@ +++.++@@@@@#   .+@@@# ",
"   ###     ###           @@@@#   ### @@@@# ++++@@@@@###  .@@@#  ",
" +++++++++         ++++   ###         @@@# @@@@@@@@####  @@##   ",
"+...++....+       ++..+++             ###   @@@@@@@### + ##   ++",
"...+@....++@     ++.....++++                 @@@@@### +.     +++",
"..++@..+++@@@    +........+++++++             ######  .++   ++..",
"+++@@++++@@@@    +.....++++++@+++@@     +++@          .++@  +...",
"++@@+++@@@@@@    +...+++++++@@+++@@    ...+@   +.++   @@@@#+++++",
"@@@++@@@@@@@@#   +..+++@@@@@@+.++@@@  +.++@@# +.@@++@  @@@#+@@@@",
"++@+@@@@@@@@##   ++++++@+.+@+..+@@@@@ ++@@@@# ..@+++@  ### ..+@.",
"++@@@@@@@@##### +..+@@@@.++@+.+@@@@@@  @@@##  .+@+++@@     .++@.",
"++@@@@@@@###### +..+@+@@@++++++@@@@@@@ @@#   +@@@@+@@@@    .+@@+",
"@@@@@@@@####### +.++++++@@+++@@@@@@@@@ ##    ++++@@@@@@#   +++++",
"@@@@@@######### +++++++++@@@@@@@@@@@@@#      ++++@@@@@##   ++++@",
"@@@@@#########   +++@@@@@@@@@@@@@@@@@@##     @@@@@@@@##+.+ ++@@@",
"@@@@@########     @@@@@@@@@@@@@@@@@@@###     @@@@@@@##..+@  +@@@",
"@@@@###+.+##       ##@@@@################     @@@@####+@@@@#   @",
"######+..+#    +.   #####+..+############     ####### #####    #",
"  ##++..++@    ..++@  ###.++@@###+++..++++      ###    +++      ",
"    +@@@+@@    .++@@     ++@@@##++...++@@++@@    +++++++.++     ",
"   ..@+@@@@#    @@@@@#    @@@#  +..+@++@..+@@   ++...+++..++    "};
