/* XPM */
static char * rock_tile_bot_right_xpm[] = {
"32 32 5 1",
" 	c #666666",
".	c #2B3036",
"+	c #3C3D3F",
"@	c #10151B",
"#	c #818272",
"    ..  ++++@...@@@@@. +++ ++   ",
"  # ...++++@@....@@@..## +++#  +",
" + +...@@@@@..........# ++## +++",
" + +........    ......  +   ++++",
" +++@......  ### .....++++++++++",
"  ++@.....  ###   .....+++++++++",
" +++@@.... ###  +  .....+++++++@",
"++++@@...  ##  ++# +.....@@@@@@@",
"++++@@... ## +++ #++........@@@@",
"++++@#  . ## + ++ +++.... # +.@@",
"++@@ #  ..#  ## +++++@... # ++..",
"@@@@#  ++.   #  +++++@...# +++@.",
".@@@.++++@.    +++++@@@..#+++@..",
"......+++@.++++++++@@@@..++@@...",
"......@@@...+++++++@@@. .@@...  ",
".............+++++@@@. #.....   ",
" .............@@@@@@..#  ...  ##",
" ++.....   +..........#  +.. ###",
" ++....### +... #  ...++++@     ",
" +++.. #  ++@. #++  +..+++@ ++++",
"+++++.  ++++@.##+   +..@@@.## +#",
"+++++..+++@@..# +   ++.....#  +#",
"++++++.++@... ++++ ++++....# ++ ",
"++++++.@@....    ++++++@...     ",
"++++++@......    +++++@@...    +",
"++++++@@.....++++++++@@ # .  +++",
"+++++@@@.....+++++++@@## +.. +++",
"@@@@@@@@@.....++++@@@@ ++++@...+",
"@@@@@@@@@.....@@@@@@@.@@@@@....@",
"@   ##    ......@@@....   ......",
"  ###  ++  ++....       #  .....",
" ## +  +## ++...  ###   ##  ...."};
