/* XPM */
static char * alt_border_xpm[] = {
"32 32 3 1",
" 	c None",
".	c #94B0C2",
"+	c #566C86",
"................................",
" ++++++++++++++++++++++++++++++ ",
"                                ",
"                                ",
"                                ",
"                                ",
"                                ",
"                                ",
"                                ",
"                                ",
"                                ",
"                                ",
"                                ",
"                                ",
"                                ",
"                                ",
"                                ",
"                                ",
"                                ",
"                                ",
"                                ",
"                                ",
"                                ",
"                                ",
"                                ",
"                                ",
"                                ",
"                                ",
"                                ",
"                                ",
"                                ",
"                                "};
