/* XPM */
static char * alt_rock_tile_bot_left_xpm[] = {
"32 32 5 1",
" 	c #566C86",
".	c #333C57",
"+	c #F4F4F4",
"@	c #94B0C2",
"#	c #1A1C2C",
"     ..+@#@@+   +@@   .##@@@++++",
"    ..@+@#@++@ +@@    .#@@+++++@",
"   ...+@@##+@@ +@     .#@++@@@@@",
"  ...@+@ .#@@@       ..#@+@@@  +",
" ....@@   #@@        ..#@+@   @+",
".....     .        ....#@@@+@  @",
"....###....       ....####+@@@ @",
"...+########     ....#######@@  ",
"..#+@###@+@#..   ....########   ",
".##@@ ##++@@@.......####@+@##.  ",
"###@  .#+@@@  ....######++@@##..",
"###   .##@    .#########+@@  .#.",
"###...#####...###########    .##",
"#@@@@@@@@@#########@@@@###...###",
"@+++@@++++@#######@@++@@@#######",
"+++@ ++++@@ #####@@+++++@@@@####",
"++@@ ++@@@   ####@++++++++@@@@@@",
"@@@  @@@@    ####@+++++@@@@@@ @@",
"@@  @@@      ####@+++@@@@@@@  @@",
"   @@        .###@++@@@      @+@",
"@@ @        ..###@@@@@@ @+@ @++@",
"@@        .....#@++@    +@@ @+@ ",
"@@       ......#@++@ @   @@@@@@ ",
"        .......#@+@@@@@@  @@@   ",
"      .........#@@@@@@@@@       ",
"     .........###@@@            ",
"     ........#####              ",
"    ...@+@..#######..    .......",
"......@++@.####@+###.....@++@...",
"##..@@++@@ ####++@@ ##...+@@  ..",
"####@   @  ####+@@  #####@@   ..",
"###++ @    .####     .####   .##"};
