/* XPM */
static char * blackhole_xpm[] = {
"32 32 5 1",
" 	c None",
".	c #FFCD75",
"+	c #F4F4F4",
"@	c #EF7D57",
"#	c #1A1C2C",
"                                ",
"                                ",
"                                ",
"              .                 ",
"                                ",
"                 +     .        ",
"          +          +          ",
"      .  .   +                  ",
"     .     ++      ++           ",
"              @@@@   +  .       ",
"         +  @@....@@     +      ",
"      + +  @..####..@           ",
"   .      @.########.@      .   ",
"          @.########.@  +   .   ",
"       + @.##########.@ +       ",
"     +   @.##########.@         ",
"     .   @.##########.@         ",
"         @.##########.@         ",
"       +  @.########.@    +     ",
"        + @.########.@          ",
"    .   +  @..####..@  +        ",
"            @@....@@  +         ",
"       +      @@@@        .     ",
"        .  ++      ++           ",
"                +     .         ",
"                     +          ",
"        ..  +.                  ",
"                                ",
"                   .            ",
"                                ",
"                                ",
"                                "};
