/* XPM */
static char * collectible_xpm[] = {
"32 32 5 1",
" 	c None",
".	c #257179",
"+	c #38B764",
"@	c #A7F070",
"#	c #F4F4F4",
"                                ",
"                                ",
"                                ",
"                                ",
"                                ",
"                                ",
"                                ",
"                                ",
"            ........            ",
"            ........            ",
"          ..++++++++..          ",
"          ..++++++++..          ",
"        ..++@@@@@@@@++..        ",
"        ..++@@@@@@@@++..        ",
"        ..++@@####@@++..        ",
"        ..++@@####@@++..        ",
"        ..++@@####@@++..        ",
"        ..++@@####@@++..        ",
"        ..++@@@@@@@@++..        ",
"        ..++@@@@@@@@++..        ",
"          ..++++++++..          ",
"          ..++++++++..          ",
"            ........            ",
"            ........            ",
"                                ",
"                                ",
"                                ",
"                                ",
"                                ",
"                                ",
"                                ",
"                                "};
